{"title":"The.Lightkeepers.DvDScr.XviD.Ac3.Feel-Free","uid":5927165,"size":1043511614,"categoryP":"video","categoryS":"movies","magnet":"?xt=urn:btih:c4cd274af31d4aa592c1d9a5b6bf44a48d2b0735&amp;dn=The.Lightkeepers.DvDScr.XviD.Ac3.Feel-Free&amp;tr=udp%3A%2F%2Ftracker.openbittorrent.com%3A80&amp;tr=udp%3A%2F%2Fopen.demonii.com%3A1337&amp;tr=udp%3A%2F%2Ftracker.coppersurfer.tk%3A6969&amp;tr=udp%3A%2F%2Fexodus.desync.com%3A6969","seeders":0,"leechers":1,"uploader":"neon","files":-1,"time":1288642613,"description":"Set in the year 1912 on Cape Cod, a lighthouse keeper who has disavowed any association with females, must deal with the appearance of two attractive women who move into a nearby cottage for the summer.\n\nGenre:Comedy\nLanguage:English\n &lt;a href=&quot; http://www.imdb.com/title/tt1156067/&quot; rel=&quot;nofollow&quot; target=&quot;_NEW&quot;&gt; http://www.imdb.com/title/tt1156067/&lt;/a&gt;\nSource:DvDScr.thanks buddy.\n\nGeneral\nComplete name :The.Lightkeepers.DvDScr.XviD.Ac3.Feel-Free\nFormat : AVI\nFormat/Info : Audio Video Interleave\nFile size : 994 MiB\nDuration : 1h 36mn\nOverall bit rate : 1 438 Kbps\nVideo #0\nCodec ID : XVID\nCodec ID/Hint : XviD\nDuration : 1h 36mn\nBit rate : 981 Kbps\nWidth : 720 pixels\nHeight : 384 pixels\nDisplay aspect ratio : 1.875\nFrame rate : 23.976 fps\nResolution : 24 bits\nColorimetry : 4:2:0\nScan type : Progressive\nBits/(Pixel*Frame) : 0.148\nStream size : 678 MiB (68%)\nWriting library : XviD 1.2.1 (UTC 2008-12-04)\nAudio #1\nID : 1\nFormat : AC-3\nFormat/Info : Audio Coding 3\nCodec ID : 2000\nDuration : 1h 36mn\nBit rate mode : Constant\nBit rate : 448 Kbps\nChannel(s) : 6 channels\nChannel positions : Front: L C R, Surround: L R, LFE\nSampling rate : 48.0 KHz\nStream size : 310 MiB (31%)\nAlignment : Split accross interleaves\nInterleave, duration : 42 ms (1.00 video frame)\nInterleave, preload duration : 500 ms\n\n","torrent":{"xt":"urn:btih:c4cd274af31d4aa592c1d9a5b6bf44a48d2b0735","amp;dn":"The.Lightkeepers.DvDScr.XviD.Ac3.Feel-Free","amp;tr":["udp%3A%2F%2Ftracker.openbittorrent.com%3A80","udp%3A%2F%2Fopen.demonii.com%3A1337","udp%3A%2F%2Ftracker.coppersurfer.tk%3A6969","udp%3A%2F%2Fexodus.desync.com%3A6969"],"infoHash":"c4cd274af31d4aa592c1d9a5b6bf44a48d2b0735","infoHashBuffer":{"type":"Buffer","data":[196,205,39,74,243,29,74,165,146,193,217,165,182,191,68,164,141,43,7,53]},"announce":[],"urlList":[]}}